<svg id="svg" xmlns="http://www.w3.org/2000/svg" xmlns:xlink="http://www.w3.org/1999/xlink" width="400" height="400" viewBox="0, 0, 400,400" version="1.1"><g id="svgg"><path id="path0" d="M17.969 98.095 C 12.807 100.914,13.281 90.574,13.281 200.276 L 13.281 299.426 14.963 300.885 C 15.888 301.687,17.119 302.344,17.698 302.344 C 18.276 302.344,18.750 302.695,18.750 303.125 C 18.750 304.430,53.258 304.150,55.814 302.824 C 60.241 300.527,60.105 301.784,60.131 263.086 L 60.156 227.344 67.773 227.249 C 71.963 227.197,91.470 227.156,111.123 227.158 C 131.620 227.161,146.673 226.868,146.428 226.472 C 146.194 226.092,146.773 225.781,147.716 225.781 C 149.699 225.781,152.908 222.621,153.559 220.028 C 154.696 215.498,153.552 188.970,152.187 188.208 C 151.456 187.800,150.356 186.963,149.742 186.349 C 148.804 185.411,142.178 185.232,108.102 185.228 C 85.814 185.225,65.908 185.207,63.867 185.189 L 60.156 185.156 60.156 161.719 L 60.156 138.281 107.757 138.281 C 158.331 138.281,155.333 138.486,158.398 134.826 C 159.673 133.304,159.805 102.702,158.540 101.920 C 158.082 101.637,157.902 100.894,158.141 100.271 C 158.380 99.648,158.314 99.299,157.994 99.497 C 157.675 99.695,156.034 99.186,154.348 98.366 C 150.319 96.406,21.529 96.150,17.969 98.095 M193.109 99.093 L 190.625 101.311 190.625 199.540 C 190.625 283.049,190.790 297.933,191.727 298.870 C 192.333 299.476,192.977 300.418,193.159 300.963 C 193.410 301.718,198.027 302.008,212.597 302.186 C 239.704 302.517,237.543 306.024,237.499 261.762 C 237.432 192.898,237.511 184.375,238.219 184.375 C 238.615 184.375,239.170 185.430,239.453 186.719 C 239.736 188.008,240.251 189.063,240.598 189.063 C 241.312 189.063,244.165 194.609,243.914 195.508 C 243.824 195.830,244.102 196.094,244.531 196.094 C 244.961 196.094,245.313 196.621,245.313 197.266 C 245.313 197.910,245.685 198.438,246.140 198.438 C 246.595 198.437,246.765 198.765,246.518 199.165 C 246.271 199.565,246.426 200.113,246.862 200.383 C 247.299 200.653,247.656 201.556,247.656 202.390 C 247.656 203.224,248.008 203.906,248.438 203.906 C 248.867 203.906,249.219 204.404,249.219 205.013 C 249.219 205.622,249.482 206.237,249.805 206.380 C 250.127 206.523,251.621 209.102,253.125 212.109 C 254.629 215.117,256.039 217.754,256.258 217.969 C 256.477 218.184,257.692 220.469,258.959 223.047 C 260.225 225.625,261.492 227.910,261.775 228.125 C 262.058 228.340,262.562 229.395,262.896 230.469 C 263.229 231.543,264.331 233.646,265.345 235.142 C 266.358 236.639,267.188 238.308,267.188 238.853 C 267.188 239.398,267.467 239.844,267.809 239.844 C 268.150 239.844,269.100 241.470,269.920 243.457 C 272.269 249.154,276.671 253.117,280.694 253.159 C 282.504 253.178,285.479 253.482,287.305 253.835 C 289.149 254.192,290.625 254.177,290.625 253.801 C 290.625 253.429,292.925 253.125,295.736 253.125 C 300.593 253.125,301.820 252.689,304.139 250.139 C 304.656 249.571,305.693 248.429,306.445 247.600 C 307.197 246.772,307.813 245.771,307.813 245.376 C 307.813 244.370,310.423 239.508,311.133 239.193 C 311.455 239.049,311.719 238.427,311.719 237.810 C 311.719 237.193,312.543 235.376,313.550 233.774 C 314.557 232.171,316.033 229.453,316.830 227.734 C 317.626 226.016,318.472 224.434,318.709 224.219 C 318.947 224.004,319.840 222.422,320.696 220.703 C 321.551 218.984,322.455 217.402,322.706 217.188 C 323.245 216.725,324.431 214.002,324.577 212.891 C 324.634 212.461,325.063 212.183,325.530 212.274 C 325.997 212.365,326.341 212.013,326.296 211.493 C 326.196 210.354,329.834 202.843,330.664 202.474 C 330.986 202.331,331.250 201.715,331.250 201.107 C 331.250 200.498,331.622 200.000,332.077 200.000 C 332.532 200.000,332.713 199.690,332.479 199.311 C 332.244 198.931,332.691 197.789,333.471 196.772 C 335.037 194.730,336.254 192.119,336.062 191.211 C 335.993 190.889,336.289 190.625,336.719 190.625 C 337.148 190.625,337.500 190.098,337.500 189.453 C 337.500 188.809,337.852 188.281,338.281 188.281 C 338.711 188.281,339.074 187.666,339.087 186.914 C 339.199 180.755,341.409 183.192,341.431 189.499 C 341.444 193.341,341.451 219.084,341.447 246.705 L 341.440 296.926 343.572 299.341 C 344.744 300.669,345.644 301.976,345.572 302.245 C 345.121 303.925,384.077 301.904,385.958 300.151 L 387.891 298.348 388.106 202.104 C 388.332 101.096,388.294 99.824,384.985 98.774 C 384.220 98.531,383.594 98.004,383.594 97.604 C 383.594 97.174,376.301 96.880,365.820 96.887 L 348.047 96.900 345.508 99.139 C 344.111 100.370,342.969 101.771,342.969 102.251 C 342.969 102.732,342.624 103.125,342.202 103.125 C 341.781 103.125,341.215 104.004,340.946 105.078 C 340.676 106.152,340.142 107.031,339.759 107.031 C 339.376 107.031,339.063 107.734,339.063 108.594 C 339.063 109.453,338.739 110.156,338.343 110.156 C 337.948 110.156,337.393 111.211,337.109 112.500 C 336.826 113.789,336.271 114.844,335.875 114.844 C 335.480 114.844,335.156 115.220,335.156 115.681 C 335.156 116.141,334.629 117.045,333.984 117.690 C 333.340 118.334,332.813 119.540,332.813 120.368 C 332.813 121.197,332.461 121.875,332.031 121.875 C 331.602 121.875,331.250 122.373,331.250 122.982 C 331.250 123.590,330.986 124.206,330.664 124.349 C 330.342 124.492,328.848 127.070,327.344 130.078 C 325.840 133.086,324.434 135.723,324.219 135.938 C 323.835 136.321,320.534 142.482,318.055 147.439 C 317.363 148.824,316.397 149.817,315.909 149.646 C 315.357 149.453,315.177 149.935,315.435 150.920 C 315.663 151.791,315.535 152.731,315.151 153.010 C 314.767 153.288,313.783 154.834,312.963 156.445 C 312.143 158.057,311.192 159.375,310.850 159.375 C 310.507 159.375,309.996 160.605,309.714 162.109 C 309.432 163.613,308.889 164.844,308.507 164.844 C 308.125 164.844,307.813 165.371,307.813 166.016 C 307.813 166.660,307.499 167.188,307.116 167.188 C 306.733 167.188,306.219 167.986,305.974 168.961 C 305.730 169.936,304.853 171.460,304.027 172.347 C 303.201 173.233,302.280 175.072,301.982 176.433 C 301.683 177.793,301.115 178.906,300.719 178.906 C 300.324 178.906,300.000 179.434,300.000 180.078 C 300.000 180.723,299.648 181.250,299.219 181.250 C 298.789 181.250,298.438 181.772,298.438 182.410 C 298.438 183.048,297.383 185.284,296.094 187.379 C 294.805 189.474,293.750 191.589,293.750 192.079 C 293.750 192.568,293.398 192.969,292.969 192.969 C 292.539 192.969,292.188 193.468,292.188 194.077 C 292.188 194.687,291.585 196.236,290.849 197.519 L 289.510 199.852 286.942 195.590 C 285.530 193.246,284.375 190.818,284.375 190.195 C 284.375 189.572,284.023 189.063,283.594 189.063 C 283.164 189.063,282.813 188.535,282.813 187.891 C 282.813 187.246,282.461 186.719,282.031 186.719 C 281.602 186.719,281.288 186.455,281.334 186.133 C 281.489 185.058,280.294 182.031,279.715 182.031 C 279.401 182.031,278.485 180.537,277.679 178.711 C 276.874 176.885,276.004 175.215,275.746 175.000 C 275.302 174.630,274.041 171.956,273.896 171.076 C 273.858 170.851,272.686 168.887,271.289 166.711 C 269.893 164.534,268.750 162.345,268.750 161.846 C 268.750 161.346,268.398 160.938,267.969 160.938 C 267.539 160.938,267.188 160.234,267.188 159.375 C 267.188 158.516,266.777 157.813,266.276 157.813 C 265.775 157.813,265.573 157.604,265.829 157.348 C 266.084 157.093,265.165 155.072,263.787 152.856 C 262.409 150.641,260.765 147.773,260.134 146.484 C 259.503 145.195,258.635 143.882,258.204 143.567 C 257.774 143.251,257.668 142.987,257.970 142.981 C 258.271 142.974,257.018 140.420,255.185 137.305 C 251.966 131.835,250.600 129.131,250.458 127.955 C 250.421 127.647,249.863 126.749,249.219 125.961 C 248.574 125.173,247.347 123.140,246.492 121.444 C 245.637 119.747,244.754 118.184,244.531 117.969 C 244.308 117.754,243.426 116.172,242.571 114.453 C 241.715 112.734,240.840 111.152,240.625 110.937 C 239.875 110.185,237.500 105.336,237.500 104.555 C 237.500 104.121,235.904 102.216,233.954 100.321 L 230.409 96.875 213.001 96.875 L 195.594 96.875 193.109 99.093 M293.564 254.459 C 294.536 254.646,295.942 254.639,296.689 254.443 C 297.436 254.247,296.641 254.095,294.922 254.103 C 293.203 254.112,292.592 254.272,293.564 254.459 " stroke="none" fill="#000000" fill-rule="evenodd"></path></g></svg>